<?xml version="1.0" encoding="UTF-8"?><svg id="Layer_1" xmlns="http://www.w3.org/2000/svg" viewBox="0 0 70.01 54.29"><defs><style>.cls-1{fill:#f3f4f4;}.cls-2{fill:#91b2dd;}.cls-3{fill:#64c7d8;}.cls-4{fill:#66411c;}.cls-5{fill:#93aab3;}.cls-6{fill:#8baedb;}.cls-7{fill:#b3bfc2;}.cls-8{fill:#b2d4ef;}.cls-9{fill:#a4c4e7;}.cls-10{fill:#dddddc;}.cls-11{fill:#e17f80;}.cls-12{fill:#e1e1e1;}.cls-13{fill:#42c2d2;}.cls-14{fill:#0b73b8;}.cls-15{fill:#93bbdc;}.cls-16{fill:#475969;}.cls-17{fill:#618dc6;}.cls-18{fill:#5e7283;}.cls-19{fill:#4f81c2;}</style></defs><polygon class="cls-17" points="57.83 49.23 53.37 51.82 53.37 54.28 57.82 51.69 57.83 49.23"/><polygon class="cls-2" points="41.23 41.03 44.01 45.12 54.56 51.21 57.82 51.7 57.82 48.48 34.78 35.18 35.66 36.33 41.23 41.03"/><path class="cls-13" d="M43.83,42.15c0,.31-.22,.43-.48,.28-.27-.15-.48-.53-.48-.84s.22-.43,.48-.28c.27,.16,.48,.53,.48,.84"/><path class="cls-19" d="M43.35,42.47c-.29-.17-.52-.57-.52-.9s.23-.47,.52-.3c.29,.17,.52,.57,.52,.9s-.23,.47-.52,.3m0-1.12c-.25-.14-.45-.03-.45,.26s.2,.63,.45,.77c.25,.14,.45,.03,.45-.26s-.2-.63-.45-.77"/><path class="cls-13" d="M45.86,43.31c0,.31-.22,.43-.48,.28-.27-.15-.48-.53-.48-.84s.22-.43,.48-.28c.27,.16,.48,.53,.48,.84"/><path class="cls-19" d="M45.37,43.64c-.29-.17-.52-.57-.52-.9s.23-.46,.52-.3c.29,.17,.52,.57,.52,.9s-.23,.47-.52,.3m0-1.12c-.25-.14-.45-.03-.45,.26s.2,.63,.45,.77c.25,.14,.45,.03,.45-.26s-.2-.63-.45-.77"/><path class="cls-13" d="M47.88,44.48c0,.31-.22,.43-.48,.28-.27-.15-.48-.53-.48-.84s.22-.43,.48-.28c.27,.16,.48,.53,.48,.84"/><path class="cls-19" d="M47.4,44.81c-.29-.17-.52-.57-.52-.9s.23-.47,.52-.3c.29,.17,.52,.57,.52,.9s-.23,.47-.52,.3m0-1.12c-.25-.14-.45-.03-.45,.26s.2,.63,.45,.77c.25,.14,.45,.03,.45-.26s-.2-.63-.45-.77"/><path class="cls-13" d="M49.91,45.65c0,.31-.22,.43-.48,.28-.27-.15-.48-.53-.48-.84s.22-.43,.48-.28c.27,.15,.48,.53,.48,.84"/><path class="cls-19" d="M49.42,45.97c-.29-.17-.52-.57-.52-.9s.23-.46,.52-.3c.29,.17,.52,.57,.52,.9s-.23,.47-.52,.3m0-1.12c-.25-.14-.45-.03-.45,.26s.2,.63,.45,.77c.25,.14,.45,.03,.45-.26s-.2-.63-.45-.77"/><path class="cls-13" d="M51.93,46.82c0,.31-.22,.43-.48,.28-.27-.15-.48-.53-.48-.84s.22-.43,.48-.28c.27,.15,.48,.53,.48,.84"/><path class="cls-19" d="M51.45,47.14c-.29-.17-.52-.57-.52-.9s.23-.46,.52-.3c.29,.17,.52,.57,.52,.9s-.23,.47-.52,.3m0-1.12c-.25-.14-.45-.03-.45,.26s.2,.63,.45,.77c.25,.14,.45,.03,.45-.26s-.2-.63-.45-.77"/><polygon class="cls-12" points="36.78 43.62 39.55 47.71 50.1 53.8 53.37 54.29 53.37 51.07 30.32 37.77 31.2 38.92 36.78 43.62"/><path class="cls-13" d="M39.38,44.73c0,.31-.22,.43-.48,.28-.27-.15-.48-.53-.48-.84s.22-.43,.48-.28c.27,.16,.48,.53,.48,.84"/><path class="cls-19" d="M38.89,45.06c-.29-.17-.52-.57-.52-.9s.23-.47,.52-.3c.29,.17,.52,.57,.52,.9s-.23,.47-.52,.3m0-1.12c-.25-.14-.45-.03-.45,.26s.2,.63,.45,.77c.25,.14,.45,.03,.45-.26s-.2-.63-.45-.77"/><path class="cls-13" d="M41.4,45.9c0,.31-.22,.43-.48,.28-.27-.15-.48-.53-.48-.84s.22-.43,.48-.28c.27,.16,.48,.53,.48,.84"/><path class="cls-19" d="M40.92,46.23c-.29-.17-.52-.57-.52-.9s.23-.46,.52-.3c.29,.17,.52,.57,.52,.9s-.23,.47-.52,.3m0-1.12c-.25-.14-.45-.03-.45,.26s.2,.63,.45,.77c.25,.14,.45,.03,.45-.26s-.2-.63-.45-.77"/><path class="cls-13" d="M43.42,47.07c0,.31-.22,.43-.48,.28-.27-.15-.48-.53-.48-.84s.22-.43,.48-.28c.27,.16,.48,.53,.48,.84"/><path class="cls-19" d="M42.94,47.39c-.29-.17-.52-.57-.52-.9s.23-.46,.52-.3c.29,.17,.52,.57,.52,.9s-.23,.47-.52,.3m0-1.12c-.25-.14-.45-.03-.45,.26s.2,.63,.45,.77c.25,.14,.45,.03,.45-.26s-.2-.63-.45-.77"/><path class="cls-13" d="M45.45,48.24c0,.31-.22,.43-.48,.28-.27-.15-.48-.53-.48-.84s.22-.43,.48-.28c.27,.15,.48,.53,.48,.84"/><path class="cls-19" d="M44.97,48.56c-.29-.17-.52-.57-.52-.9s.23-.47,.52-.3c.29,.17,.52,.57,.52,.9s-.23,.47-.52,.3m0-1.12c-.25-.14-.45-.03-.45,.26s.2,.63,.45,.77c.25,.14,.45,.03,.45-.26s-.2-.63-.45-.77"/><path class="cls-13" d="M47.47,49.41c0,.31-.22,.43-.48,.28-.27-.15-.48-.53-.48-.84s.22-.43,.48-.28c.27,.16,.48,.53,.48,.84"/><path class="cls-19" d="M46.99,49.73c-.29-.17-.52-.57-.52-.9s.23-.46,.52-.3c.29,.17,.52,.57,.52,.9s-.23,.47-.52,.3m0-1.12c-.25-.14-.45-.03-.45,.26s.2,.63,.45,.77c.25,.14,.45,.03,.45-.26s-.2-.63-.45-.77"/><polygon class="cls-9" points="57.82 48.48 53.37 51.07 53.37 51.82 57.84 49.32 57.82 48.48"/><polygon class="cls-17" points="57.83 48.94 53.37 51.53 53.36 54.08 57.82 51.49 57.83 48.94"/><polygon class="cls-3" points="57.83 49.11 53.37 51.7 53.36 54.16 57.82 51.57 57.83 49.11"/><polygon class="cls-9" points="34.78 35.18 30.32 37.77 53.37 51.07 57.82 48.48 34.78 35.18"/><path class="cls-14" d="M9.01,16.6v11.85s5.42-1.28,5.42-9.06l-5.42-2.79Z"/><path class="cls-5" d="M12.95,12.09L20.69,0s2.42,6.67-2.08,13.93c.14-.05-5.65-1.84-5.65-1.84"/><path class="cls-4" d="M46.73,43.52c0,4.72,3.31,6.63,7.4,4.27,4.09-2.36,7.4-8.1,7.4-12.82s-3.31-6.63-7.4-4.27c-4.09,2.36-7.4,8.1-7.4,12.82"/><polygon class="cls-11" points="67.93 44.56 64.34 49.53 49.27 43.74 57.63 35.33 67.93 44.56"/><path class="cls-14" d="M58.7,33.92c-9.72-7.46-31.53-17.16-49.83-22.49-.24-.09-.51-.11-.8-.04-.02,0-.05,.01-.07,.02-.23,.07-.47,.19-.66,.35,.29-.4,.64-.73,1.02-.95,.39-.22,.74-.29,1.03-.22,20.95,3.03,42.98,11.75,51.69,19.45,9.91,8.75,7.85,16.28,7.85,16.28l-.21,.36c-.4-1.13-1.56-6.27-10.03-12.77"/><path class="cls-1" d="M56.31,37.79C45.52,30.6,24,19.88,8.34,12.26c-.21-.12-.44-.21-.65-.24-.02,0-.04,0-.06,0-.19-.02-.36-.02-.49,.02,.06-.1,.12-.19,.19-.28,.19-.16,.42-.27,.66-.35,.02,0,.05-.01,.07-.02,.28-.07,.55-.06,.8,.03,18.3,5.32,40.11,15.02,49.83,22.49,8.47,6.5,9.62,11.64,10.03,12.77l-.48,.85c-.94-.11-3.07-3.84-11.93-9.74"/><path class="cls-10" d="M7.31,12.66c.14,.14,.31,.29,.5,.44,13.01,9.91,34.21,21.73,46.11,28.56,7.98,4.58,11.56,6.74,13.3,6.68-1.92,1.6-6.77,1.82-15.91-2.67C38.26,39.25,17.65,26.13,7.29,13.93c-.16-.18-.28-.4-.35-.64,0-.02-.01-.04-.02-.07-.05-.2-.08-.41-.07-.6,.05-.11,.1-.22,.16-.33,.05,.09,.15,.2,.27,.33,.01,.01,.02,.02,.04,.04"/><path class="cls-14" d="M6.85,12.62c-.01,.2,.02,.4,.07,.61,0,.02,.01,.04,.02,.06,.07,.24,.19,.46,.35,.64,10.36,12.2,30.96,25.32,44.02,31.74,9.13,4.49,13.99,4.27,15.91,2.67,.26,0,.47-.06,.66-.17l-.2,.36c-2.05,2.35-8.66,4.56-18.45,.54C34.97,43.21,14.48,29.26,6.77,14.77c-.13-.21-.21-.5-.21-.85,0-.42,.11-.87,.29-1.3"/><path class="cls-14" d="M67.56,48.01c-.1,.11-.21,.22-.33,.33-1.74,.06-5.32-2.1-13.3-6.68C42.02,34.82,20.82,23.01,7.82,13.1h0c-.19-.15-.36-.3-.5-.44-.01-.01-.02-.02-.04-.04-.12-.12-.22-.24-.27-.33,.04-.08,.09-.17,.14-.25,.12-.04,.3-.05,.49-.02,.02,0,.04,0,.06,0,.21,.03,.43,.11,.65,.24,15.66,7.62,37.18,18.34,47.97,25.52,8.86,5.9,10.99,9.63,11.93,9.74l-.36,.64c-.18,.1-.4,.16-.66,.17,.12-.1,.23-.21,.33-.33"/><path class="cls-15" d="M64.8,47.89c0,1.36,.95,1.9,2.12,1.23,1.17-.68,2.12-2.32,2.12-3.68s-.95-1.9-2.12-1.23c-1.17,.68-2.12,2.32-2.12,3.68"/><path class="cls-16" d="M69.7,48.39s-.02,0-.03-.01c-.01,0-.02,0-.03-.01-.01,0-.02,0-.03-.01-.01,0-.02,0-.03-.01-.01,0-.02,0-.03-.01-.01,0-.02,0-.03-.01-.01,0-.02,0-.03-.01-.01,0-.02,0-.03-.01-.01,0-.02,0-.03-.01-.01,0-.02,0-.03-.01-.01,0-.02,0-.03-.01-.01,0-.02,0-.03-.01-.01,0-.02,0-.03-.01-.01,0-.02,0-.03-.01-.01,0-.02,0-.03-.01-.01,0-.02,0-.03-.01-.01,0-.02,0-.03-.01-.01,0-.02,0-.03-.01-.01,0-.02,0-.03-.01-.01,0-.02,0-.03-.01-.01,0-.02,0-.03-.01-.01,0-.02,0-.03-.01-.01,0-.02,0-.03-.01-.01,0-.02,0-.03-.01-.01,0-.02,0-.03-.01-.01,0-.02,0-.03-.01-.01,0-.02,0-.03-.01-.01,0-.02,0-.03-.01-.01,0-.02,0-.03-.01-.01,0-.02,0-.03-.01-.01,0-.02,0-.03-.01-.01,0-.02,0-.03-.01-.01,0-.02,0-.03-.01-.01,0-.02,0-.03-.01-.01,0-.02,0-.03-.01-.01,0-.02,0-.03-.01,0,0-.02,0-.03-.01-.01,0-.02,0-.03-.01,0,0-.02,0-.03-.01-.01,0-.02,0-.03-.01-.01,0-.02,0-.03-.01-.01,0-.02,0-.03-.01-.01,0-.02,0-.03-.01,0,0-.02,0-.03-.01-.01,0-.02,0-.03-.01-.01,0-.02,0-.03-.01-.01,0-.02,0-.03-.01-.01,0-.02,0-.03-.01-.01,0-.02,0-.03-.01-.01,0-.02,0-.03-.01,0,0-.02,0-.03-.01-.01,0-.02,0-.03-.01,0,0-.02,0-.03-.01-.01,0-.02,0-.03-.01-.01,0-.02,0-.03-.01-.01,0-.02,0-.03-.01-.01,0-.02,0-.03-.01,0,0-.02,0-.03-.01-.01,0-.02,0-.03-.01,0,0-.02,0-.03-.01-.01,0-.02,0-.03-.01-.01,0-.02,0-.03-.01-.01,0-.02,0-.03-.01-.01,0-.02,0-.03-.01,0,0-.02,0-.03-.01-.01,0-.02,0-.03-.01,0,0-.02,0-.03-.01-.01,0-.02,0-.03-.01-.01,0-.02,0-.03-.01-.01,0-.02,0-.03-.01-.01,0-.02,0-.03-.01,0,0-.02,0-.03-.01-.01,0-.02,0-.03-.01,0,0-.02,0-.03-.01-.01,0-.02,0-.03-.01-.01,0-.02,0-.03-.01,0,0-.02,0-.03-.01-.01,0-.02,0-.03-.01,0,0-.02,0-.03-.01-.01,0-.02,0-.03-.01,0,0-.02,0-.03-.01-.01,0-.02,0-.03-.01-.01,0-.02,0-.03-.01,0,0-.02,0-.03-.01-.01,0-.02,0-.03-.01,0,0-.02,0-.03-.01-.01,0-.02,0-.03-.01-.01,0-.02,0-.03-.01-.01,0-.02,0-.03-.01-.01,0-.02,0-.03-.01,0,0-.02,0-.03-.01-.01,0-.02,0-.03-.01,0,0-.02,0-.03-.01-.01,0-.02,0-.03-.01,0,0-.02,0-.03-.01-.01,0-.02,0-.03-.01-.01,0-.02,0-.03-.01-.06-.02-.09-.07-.09-.16,0-.15,.11-.34,.24-.41,.07-.04,.14-.04,.19,0,0,0,.02,.01,.03,.02,0,0,.02,.01,.03,.02,0,0,.02,.01,.03,.02,0,0,.02,0,.03,.02,0,0,.02,0,.03,.02,.01,0,.02,0,.03,.02,.01,0,.02,0,.03,.02,0,0,.02,0,.03,.02,0,0,.02,.01,.03,.02,0,0,.02,.01,.03,.02,0,0,.02,.01,.03,.02,0,0,.02,.01,.03,.02,0,0,.02,0,.03,.02,.01,0,.02,0,.03,.02,.01,0,.02,0,.03,.02,0,0,.02,0,.03,.02,0,0,.02,.01,.03,.02,0,0,.02,.01,.03,.02,0,0,.02,.01,.03,.02,0,0,.02,.01,.03,.02,.01,0,.02,0,.03,.02,.01,0,.02,0,.03,.02,0,0,.02,0,.03,.02,0,0,.02,0,.03,.02,0,0,.02,0,.03,.02,0,0,.02,.01,.03,.02,0,0,.02,.01,.03,.02,0,0,.02,.01,.03,.02,.01,0,.02,0,.03,.02,.01,0,.02,0,.03,.02,.01,0,.02,0,.03,.02,0,0,.02,0,.03,.02,0,0,.02,0,.03,.02,0,0,.02,0,.03,.02,0,0,.02,.01,.03,.02,0,0,.02,.01,.03,.02,.01,0,.02,.01,.03,.02,.01,0,.02,0,.03,.02,.01,0,.02,0,.03,.02,0,0,.02,0,.03,.02,0,0,.02,0,.03,.02,0,0,.02,0,.03,.02,0,0,.02,0,.03,.02,.01,0,.02,.01,.03,.02,.01,0,.02,.01,.03,.02,.01,0,.02,0,.03,.02,.01,0,.02,0,.03,.02,0,0,.02,0,.03,.02,0,0,.02,0,.03,.02,0,0,.02,0,.03,.02,0,0,.02,0,.03,.02,.01,0,.02,.01,.03,.02,.01,0,.02,0,.03,.02,.01,0,.02,0,.03,.02,0,0,.02,0,.03,.02,0,0,.02,0,.03,.02,0,0,.02,0,.03,.02,.01,0,.02,0,.03,.02,.01,0,.02,0,.03,.02,.01,0,.02,0,.03,.02,0,0,.02,0,.03,.02,0,0,.02,0,.03,.02,0,0,.02,0,.03,.02,.01,0,.02,0,.03,.02,.01,0,.02,0,.03,.02,.01,0,.02,0,.03,.02,.01,0,.02,0,.03,.02,0,0,.02,0,.03,.02,0,0,.02,0,.03,.02,0,0,.02,0,.03,.02,.01,0,.02,0,.03,.02,.01,0,.02,0,.03,.02,.01,0,.02,0,.03,.02,.01,0,.02,0,.03,.02,0,0,.02,0,.03,.02,0,0,.02,0,.03,.02,0,0,.02,0,.03,.02,.01,0,.02,0,.03,.02,.01,0,.02,0,.03,.02,.01,0,.02,0,.03,.02,.01,0,.02,0,.03,.02,.01,0,.02,0,.03,.02,0,0,.02,0,.03,.02,0,0,.02,0,.03,.02,.01,0,.02,0,.03,.02,.01,0,.02,0,.03,.02,.01,0,.02,0,.03,.02,.01,0,.02,0,.03,.02,.01,0,.02,0,.03,.02,.01,0,.02,0,.03,.02,.01,0,.02,0,.03,.02,0,0,.02,0,.03,.02,.01,0,.02,0,.03,.02,.01,0,.02,0,.03,.02,.01,0,.02,0,.03,.02,.01,0,.02,0,.03,.02,.01,0,.02,0,.03,.02,.01,0,.02,0,.03,.02,.01,0,.02,0,.03,.02,.01,0,.02,0,.03,.02,.01,0,.02,0,.03,.02,.01,0,.02,0,.03,.02,.02,0,.04,.02,.04,.06,0,.05-.04,.12-.08,.15-.03,.02-.06,.01-.07,0-.01,0-.02,0-.03-.01-.01,0-.02,0-.03-.01-.01,0-.02,0-.03-.01-.01,0-.02,0-.03-.01-.01,0-.02,0-.03-.01"/><path class="cls-7" d="M8.52,14.65L0,11.13s4.09,5.51,12.3,7.58c0,.14-3.78-4.06-3.78-4.06"/><path class="cls-6" d="M42.23,24.45c0-.1,.06-.21,.2-.28l.57-.33c.26-.15,.7-.15,.96,0l1.5,.87c.14,.08,.2,.18,.2,.28h0v.02h0v.02h0v.02h0v.02h0v.02h0v.02h0v.02h0v.02h0v.02h0v.02h0v.02h0v.02h0v.02h0v.02h0v.02h0v.02h0v.02h0v.02h0v.02h0v.02c0,.1-.06,.21-.2,.28l-.57,.33c-.26,.15-.7,.15-.96,0l-1.51-.87c-.13-.08-.2-.18-.2-.28h0v-.02h0v-.02h0v-.02h0v-.02h0v-.02h0v-.02h0v-.02h0v-.02h0v-.02h0v-.02h0v-.02h0v-.02h0v-.02h0v-.02h0v-.02h0v-.02h0v-.02h0v-.02h0v-.02h0v-.02"/><path class="cls-8" d="M42.43,24.72l1.51,.87c.26,.15,.7,.15,.96,0l.57-.33c.26-.15,.26-.4,0-.55l-1.5-.87c-.26-.15-.7-.15-.96,0l-.57,.33c-.26,.15-.26,.4,0,.55"/><path class="cls-6" d="M43.06,24.39c0-.13,.08-.26,.26-.36,.34-.2,.89-.2,1.23,0,.17,.1,.26,.23,.25,.36h0v.02h0v.02h0v.02h0v.02h0v.02h0v.02h0v.02h0v.02h0v.02h0v.02h0v.02h0v.02h0v.02h0v.02h0v.02h0v.02h0v.02h0v.02h0c0,.14-.08,.27-.25,.36-.34,.2-.89,.2-1.23,0-.17-.1-.26-.23-.26-.36h0v-.02h0v-.02h0v-.02h0v-.02h0v-.02h0v-.02h0v-.02h0v-.02h0v-.02h0v-.02h0v-.02h0v-.02h0v-.02h0v-.02h0v-.02h0v-.02h0v-.02h0v-.02h0Z"/><path class="cls-8" d="M43.32,24.03c-.34,.2-.34,.51,0,.71,.34,.2,.89,.2,1.23,0,.34-.2,.34-.51,0-.71-.34-.2-.89-.2-1.23,0"/><path class="cls-18" d="M43.77,24.3c-.09,.05-.09,.14,0,.19,.09,.05,.24,.05,.33,0s.09-.14,0-.19c-.09-.05-.24-.05-.33,0"/><path class="cls-18" d="M43.77,24.21c-.09,.05-.09,.14,0,.19,.09,.05,.24,.05,.33,0,.09-.05,.09-.14,0-.19-.09-.05-.24-.05-.33,0"/><path class="cls-18" d="M43.77,24.12c-.09,.05-.09,.14,0,.19,.09,.05,.23,.05,.32,0,.09-.05,.09-.14,0-.19-.09-.05-.23-.05-.32,0"/><path class="cls-18" d="M43.77,24.03c-.09,.05-.09,.13,0,.19,.09,.05,.23,.05,.32,0s.09-.13,0-.19c-.09-.05-.23-.05-.32,0"/><path class="cls-18" d="M43.77,23.94c-.09,.05-.09,.13,0,.18,.09,.05,.23,.05,.32,0,.09-.05,.09-.13,0-.18-.09-.05-.23-.05-.32,0"/><path class="cls-18" d="M43.77,23.85c-.09,.05-.09,.13,0,.18,.09,.05,.23,.05,.32,0,.09-.05,.09-.13,0-.18-.09-.05-.23-.05-.32,0"/><path class="cls-18" d="M43.78,23.77c-.09,.05-.09,.13,0,.18,.09,.05,.23,.05,.32,0,.09-.05,.09-.13,0-.18-.09-.05-.23-.05-.32,0"/><path class="cls-18" d="M43.78,23.68c-.09,.05-.09,.13,0,.18,.09,.05,.23,.05,.31,0,.09-.05,.09-.13,0-.18-.09-.05-.23-.05-.31,0"/><path class="cls-18" d="M43.78,23.59c-.09,.05-.09,.13,0,.18,.09,.05,.23,.05,.31,0,.09-.05,.09-.13,0-.18-.09-.05-.23-.05-.31,0"/><path class="cls-18" d="M43.78,23.5c-.09,.05-.09,.13,0,.18,.09,.05,.23,.05,.31,0,.09-.05,.09-.13,0-.18-.08-.05-.22-.05-.31,0"/><path class="cls-18" d="M43.78,23.41c-.09,.05-.09,.13,0,.18,.09,.05,.22,.05,.31,0,.09-.05,.09-.13,0-.18-.08-.05-.22-.05-.31,0"/><path class="cls-18" d="M43.78,23.32c-.08,.05-.08,.13,0,.18,.08,.05,.22,.05,.31,0,.08-.05,.08-.13,0-.18-.08-.05-.22-.05-.31,0"/><path class="cls-18" d="M43.78,23.24c-.08,.05-.08,.13,0,.17,.08,.05,.22,.05,.3,0,.08-.05,.08-.13,0-.17-.08-.05-.22-.05-.3,0"/><path class="cls-18" d="M43.78,23.15c-.08,.05-.08,.13,0,.17,.08,.05,.22,.05,.3,0,.08-.05,.08-.13,0-.17-.08-.05-.22-.05-.3,0"/><path class="cls-18" d="M43.78,23.06c-.08,.05-.08,.12,0,.17,.08,.05,.22,.05,.3,0,.08-.05,.08-.12,0-.17-.08-.05-.22-.05-.3,0"/><path class="cls-18" d="M43.78,22.97c-.08,.05-.08,.12,0,.17,.08,.05,.22,.05,.3,0,.08-.05,.08-.12,0-.17-.08-.05-.22-.05-.3,0"/><path class="cls-18" d="M43.79,22.88c-.08,.05-.08,.12,0,.17,.08,.05,.21,.05,.3,0,.08-.05,.08-.12,0-.17-.08-.05-.22-.05-.3,0"/><path class="cls-18" d="M43.79,22.79c-.08,.05-.08,.12,0,.17,.08,.05,.21,.05,.29,0,.08-.05,.08-.12,0-.17-.08-.05-.21-.05-.29,0"/><path class="cls-18" d="M43.79,22.71c-.08,.05-.08,.12,0,.17,.08,.05,.21,.05,.29,0,.08-.05,.08-.12,0-.17-.08-.05-.21-.05-.29,0"/><path class="cls-18" d="M43.79,22.62c-.08,.05-.08,.12,0,.17,.08,.05,.21,.05,.29,0,.08-.05,.08-.12,0-.17-.08-.05-.21-.05-.29,0"/><path class="cls-18" d="M43.79,22.53c-.08,.05-.08,.12,0,.17,.08,.05,.21,.05,.29,0,.08-.05,.08-.12,0-.17-.08-.05-.21-.05-.29,0"/><path class="cls-18" d="M43.79,22.44c-.08,.05-.08,.12,0,.17,.08,.05,.21,.05,.28,0,.08-.05,.08-.12,0-.17-.08-.05-.21-.05-.28,0"/><path class="cls-18" d="M43.79,22.35c-.08,.05-.08,.12,0,.16,.08,.05,.21,.05,.28,0,.08-.05,.08-.12,0-.16-.08-.05-.21-.05-.28,0"/><path class="cls-18" d="M43.79,22.26c-.08,.05-.08,.12,0,.16,.08,.05,.2,.05,.28,0,.08-.04,.08-.12,0-.16-.08-.05-.2-.05-.28,0"/><path class="cls-18" d="M43.79,22.18c-.08,.05-.08,.12,0,.16,.08,.04,.2,.04,.28,0,.08-.05,.08-.12,0-.16-.08-.05-.2-.05-.28,0"/><path class="cls-18" d="M43.79,22.09c-.08,.04-.08,.12,0,.16,.08,.04,.2,.04,.28,0,.08-.04,.08-.12,0-.16-.08-.04-.2-.04-.28,0"/><path class="cls-18" d="M43.8,22c-.08,.04-.08,.11,0,.16,.08,.04,.2,.04,.28,0s.08-.11,0-.16c-.08-.04-.2-.04-.28,0"/><path class="cls-18" d="M43.8,21.91c-.08,.04-.08,.11,0,.16,.08,.04,.2,.04,.27,0,.07-.04,.07-.11,0-.16-.08-.04-.2-.04-.27,0"/><path class="cls-18" d="M43.8,21.82c-.07,.04-.07,.11,0,.16,.07,.04,.2,.04,.27,0,.07-.04,.07-.11,0-.16-.08-.04-.2-.04-.27,0"/><path class="cls-18" d="M43.8,21.73c-.07,.04-.07,.11,0,.16,.07,.04,.19,.04,.27,0,.07-.04,.07-.11,0-.16-.07-.04-.19-.04-.27,0"/><path class="cls-18" d="M43.8,21.65c-.07,.04-.07,.11,0,.15,.07,.04,.19,.04,.27,0,.07-.04,.07-.11,0-.15-.07-.04-.19-.04-.27,0"/><path class="cls-18" d="M43.8,21.56c-.07,.04-.07,.11,0,.15,.07,.04,.19,.04,.27,0,.07-.04,.07-.11,0-.15-.07-.04-.19-.04-.27,0"/><path class="cls-18" d="M43.8,21.47c-.07,.04-.07,.11,0,.15,.07,.04,.19,.04,.26,0,.07-.04,.07-.11,0-.15-.07-.04-.19-.04-.26,0"/><path class="cls-18" d="M43.8,21.38c-.07,.04-.07,.11,0,.15,.07,.04,.19,.04,.26,0,.07-.04,.07-.11,0-.15-.07-.04-.19-.04-.26,0"/><path class="cls-18" d="M43.8,21.29c-.07,.04-.07,.11,0,.15,.07,.04,.19,.04,.26,0,.07-.04,.07-.11,0-.15-.07-.04-.19-.04-.26,0"/><path class="cls-18" d="M43.8,21.2c-.07,.04-.07,.11,0,.15,.07,.04,.19,.04,.26,0,.07-.04,.07-.11,0-.15-.07-.04-.19-.04-.26,0"/><path class="cls-18" d="M43.81,21.12c-.07,.04-.07,.11,0,.15,.07,.04,.18,.04,.26,0,.07-.04,.07-.11,0-.15-.07-.04-.18-.04-.26,0"/><path class="cls-18" d="M43.81,21.03c-.07,.04-.07,.11,0,.15,.07,.04,.18,.04,.25,0,.07-.04,.07-.11,0-.15-.07-.04-.18-.04-.25,0"/><path class="cls-18" d="M43.81,20.94c-.07,.04-.07,.11,0,.15,.07,.04,.18,.04,.25,0,.07-.04,.07-.11,0-.15-.07-.04-.18-.04-.25,0"/><path class="cls-18" d="M43.81,20.85c-.07,.04-.07,.1,0,.14,.07,.04,.18,.04,.25,0,.07-.04,.07-.1,0-.14-.07-.04-.18-.04-.25,0"/><path class="cls-18" d="M43.81,20.76c-.07,.04-.07,.1,0,.14,.07,.04,.18,.04,.25,0,.07-.04,.07-.1,0-.14-.07-.04-.18-.04-.25,0"/><path class="cls-18" d="M43.81,20.67c-.07,.04-.07,.1,0,.14,.07,.04,.18,.04,.24,0s.07-.1,0-.14c-.07-.04-.18-.04-.24,0"/><path class="cls-18" d="M43.81,20.59c-.07,.04-.07,.1,0,.14,.07,.04,.18,.04,.24,0,.07-.04,.07-.1,0-.14-.07-.04-.18-.04-.24,0"/><path class="cls-18" d="M43.81,20.5c-.07,.04-.07,.1,0,.14,.07,.04,.17,.04,.24,0,.07-.04,.07-.1,0-.14-.07-.04-.17-.04-.24,0"/><path class="cls-18" d="M43.81,20.41c-.07,.04-.07,.1,0,.14,.07,.04,.17,.04,.24,0,.06-.04,.06-.1,0-.14-.07-.04-.17-.04-.24,0"/><path class="cls-18" d="M43.81,20.32c-.06,.04-.06,.1,0,.14,.06,.04,.17,.04,.24,0,.07-.04,.07-.1,0-.14-.06-.04-.17-.04-.24,0"/><path class="cls-18" d="M43.82,20.23c-.06,.04-.06,.1,0,.14,.06,.04,.17,.04,.23,0,.06-.04,.06-.1,0-.14-.06-.04-.17-.04-.23,0"/><path class="cls-18" d="M43.82,20.14c-.06,.04-.06,.1,0,.13,.06,.04,.17,.04,.23,0,.06-.04,.06-.1,0-.13-.06-.04-.17-.04-.23,0"/><path class="cls-18" d="M43.82,20.06c-.06,.04-.06,.1,0,.13,.06,.04,.17,.04,.23,0,.06-.04,.06-.1,0-.13-.06-.04-.17-.04-.23,0"/><path class="cls-18" d="M43.82,19.97c-.06,.04-.06,.1,0,.13,.06,.04,.17,.04,.23,0,.06-.04,.06-.1,0-.13-.06-.04-.17-.04-.23,0"/><path class="cls-18" d="M43.82,19.88c-.06,.04-.06,.1,0,.13,.06,.04,.16,.04,.23,0,.06-.04,.06-.1,0-.13-.06-.04-.16-.04-.23,0"/><path class="cls-18" d="M43.82,19.79c-.06,.04-.06,.09,0,.13,.06,.04,.16,.04,.23,0,.06-.04,.06-.09,0-.13-.06-.04-.16-.04-.23,0"/><path class="cls-18" d="M43.82,19.7c-.06,.04-.06,.09,0,.13,.06,.04,.16,.04,.22,0,.06-.04,.06-.09,0-.13-.06-.04-.16-.04-.22,0"/><path class="cls-18" d="M43.82,19.62c-.06,.04-.06,.09,0,.13,.06,.03,.16,.03,.22,0,.06-.04,.06-.09,0-.13-.06-.04-.16-.04-.22,0"/><path class="cls-18" d="M43.82,19.53c-.06,.04-.06,.09,0,.13,.06,.03,.16,.03,.22,0,.06-.04,.06-.09,0-.13-.06-.04-.16-.04-.22,0"/><path class="cls-18" d="M43.82,19.44c-.06,.03-.06,.09,0,.12,.06,.03,.16,.03,.22,0,.06-.03,.06-.09,0-.12-.06-.03-.16-.03-.22,0"/><path class="cls-18" d="M43.83,19.35c-.06,.03-.06,.09,0,.12,.06,.04,.16,.04,.21,0,.06-.03,.06-.09,0-.12-.06-.03-.15-.03-.21,0"/><polygon class="cls-18" points="43.95 19.53 20.71 .15 20.66 .2 43.7 19.42 .05 11.13 .04 11.2 43.95 19.53"/></svg>